<svg width="64" height="64" viewBox="0 0 64 64" fill="none" xmlns="http://www.w3.org/2000/svg">
<path fill-rule="evenodd" clip-rule="evenodd" d="M32 64C49.6733 64 64 49.6733 64 32C64 14.3267 49.6733 0 32 0C14.3267 0 0 14.3267 0 32C0 49.6733 14.3267 64 32 64ZM32 60.8C47.9053 60.8 60.8 47.9053 60.8 32C60.8 16.0947 47.9053 3.2 32 3.2C16.0947 3.2 3.2 16.0947 3.2 32C3.2 47.9053 16.0947 60.8 32 60.8Z" fill="white"/>
<path d="M54.352 31.7347H49.76V35.7C49.148 35.9533 48.5053 36.0813 47.8333 36.0813C46.6987 36.0813 45.788 35.7227 45.1 35.0067C45.0373 34.94 44.9787 34.872 44.9227 34.8013H34.4107C34.3733 34.8413 34.336 34.8787 34.296 34.916C33.624 35.5587 32.72 35.8787 31.5853 35.8787H29.368V34.8H24.0813V40H31.8093C33.556 40 35.0947 39.6867 36.424 39.0587C37.768 38.416 38.8053 37.5053 39.5373 36.3253C39.5893 36.2427 39.64 36.1587 39.6893 36.0747C39.7507 36.1893 39.8147 36.3027 39.8813 36.416C40.6427 37.656 41.688 38.6267 43.0173 39.328C44.3467 40.0147 45.8467 40.3587 47.52 40.3587C48.7 40.3587 49.9013 40.1867 51.1267 39.844C52.3507 39.5 53.4267 39.008 54.352 38.3653V31.7347Z" fill="white"/>
<path d="M39.6947 28.2533C39.7533 28.1427 39.816 28.0333 39.8813 27.9253C40.6427 26.6707 41.696 25.7 43.04 25.0133C44.3987 24.312 45.9293 23.96 47.632 23.96C49.1707 23.96 50.544 24.2213 51.7533 24.744C52.9773 25.252 53.9933 25.9987 54.8 26.984L51.4173 29.9627C50.432 28.8133 49.26 28.2373 47.9 28.2373C46.7347 28.2373 45.8093 28.588 45.1227 29.2907C45.068 29.3467 45.0147 29.4053 44.964 29.464H34.3373C34.324 29.4507 34.3093 29.4373 34.296 29.424C33.624 28.7667 32.72 28.4387 31.5853 28.4387H29.368V29.4667H24.0813V24.32H31.8093C33.556 24.32 35.0947 24.6413 36.424 25.2827C37.768 25.9093 38.8053 26.8133 39.5373 27.9933C39.592 28.08 39.644 28.1653 39.6947 28.2533Z" fill="white"/>
<path d="M24.0813 33.7333H29.368V32.6667H24.0813V33.7333Z" fill="white"/>
<path d="M29.368 30.5333V31.6H24.0813V30.5333H29.368Z" fill="white"/>
<path d="M22.7133 40V36.0133H14.8733V33.952H21.504V30.144H14.8733V28.3067H22.4227V24.32H9.676V40H22.7133Z" fill="white"/>
<path d="M35.304 32.6667C35.268 33.0547 35.1893 33.4107 35.0693 33.7333H44.336C44.2227 33.4053 44.148 33.0493 44.1133 32.6667H35.304Z" fill="white"/>
<path d="M44.1173 31.6C44.1547 31.2147 44.232 30.86 44.3493 30.5333H35.0453C35.1733 30.8547 35.2573 31.2107 35.2973 31.6H44.1173Z" fill="white"/>
</svg>
